# xmcd
#
# Track frame offsets:
#	150
#	17107
#	30642
#	56297
#
# Disc length: 1090 seconds
#
# Revision: 0
# Processed by: cddbd v1.5.1PL0 Copyright (c) Steve Scherf et al.
# Submitted via: dBpowerAMP V4.0
#
DISCID=26044004
DTITLE=Erykah Baduh - Tyrone (single)
DYEAR=1900
DGENRE=Blues
TTITLE0=Tyrone (Live)
TTITLE1=Tyrone (clean edit)
TTITLE2=Tyrone (extended version)
TTITLE3=Tyrone (instrumental)
EXTD=
EXTT0=
EXTT1=
EXTT2=
EXTT3=
PLAYORDER=
